<svg id="Layer_3" enable-background="new 0 0 64 64" height="512" viewBox="0 0 64 64" width="512" xmlns="http://www.w3.org/2000/svg"><path d="m63 26c0-.849-.005-3.393-10.067-5.316-.684-10.965-9.798-19.684-20.933-19.684s-20.249 8.719-20.933 19.684c-10.062 1.923-10.067 4.467-10.067 5.316 0 2.553 4.315 4.239 10.013 5.315.137 11.364 6.419 21.692 16.482 27.02l.543.287c-.012.127-.038.249-.038.378 0 2.206 1.794 4 4 4s4-1.794 4-4c0-.129-.026-.251-.038-.378l.543-.287c10.063-5.327 16.345-15.656 16.482-27.02 5.698-1.076 10.013-2.762 10.013-5.315zm-50-4c0-10.477 8.523-19 19-19s19 8.523 19 19v2c0 .552-.448 1-1 1h-36c-.552 0-1-.448-1-1zm19 39c-1.103 0-2-.897-2-2s.897-2 2-2 2 .897 2 2-.897 2-2 2zm3.569-4.433-.29.153c-.723-1.037-1.921-1.72-3.279-1.72s-2.556.683-3.28 1.721l-.29-.153c-9.303-4.925-15.146-14.423-15.406-24.906 6.301.991 13.765 1.338 18.976 1.338s12.675-.347 18.975-1.338c-.259 10.483-6.103 19.98-15.406 24.905zm-3.569-25.567c-18.764 0-29-3.303-29-5 0-.452 1.512-1.967 8-3.264v1.264c0 1.654 1.346 3 3 3h36c1.654 0 3-1.346 3-3v-1.264c6.488 1.297 8 2.812 8 3.264 0 1.697-10.236 5-29 5z"/><path d="m47 22h2c0-7.762-5.243-14.532-12.751-16.465l-.498 1.938c6.623 1.704 11.249 7.678 11.249 14.527z"/><path d="m34.124 5.132c-.698-.088-1.413-.132-2.124-.132v2c.628 0 1.26.039 1.876.116z"/></svg>